<svg width="107" height="20" viewBox="0 0 107 20" fill="none" xmlns="http://www.w3.org/2000/svg">
<path d="M0 17V15H2V13H4V11H6V9H4V7H2V5H0V3H4V5H6V7H8V9H10V11H8V13H6V15H4V17H0ZM18.4 17V15H20.4V13H22.4V11H24.4V9H22.4V7H20.4V5H18.4V3H22.4V5H24.4V7H26.4V9H28.4V11H26.4V13H24.4V15H22.4V17H18.4Z" fill="#EF3D3D"/>
<path d="M41.976 18.568C42.584 18.568 43.104 18.44 43.536 18.184C43.984 17.928 44.328 17.608 44.568 17.224C44.824 16.84 45.024 16.352 45.168 15.76C45.376 14.816 45.48 13.624 45.48 12.184C45.48 10.744 45.232 9.648 44.736 8.896C44.24 8.144 43.544 7.768 42.648 7.768C41.752 7.768 40.928 8.152 40.176 8.92C39.44 9.672 39.072 10.368 39.072 11.008L39.12 17.68C39.888 18.272 40.84 18.568 41.976 18.568ZM39.096 0.615999L39.072 5.752C39.072 7.384 39.032 8.544 38.952 9.232H39.168C39.6 8.528 40.2 7.984 40.968 7.6C41.736 7.216 42.56 7.024 43.44 7.024C44.768 7.024 45.88 7.488 46.776 8.416C47.672 9.328 48.12 10.784 48.12 12.784C48.12 14.768 47.584 16.352 46.512 17.536C45.44 18.704 43.912 19.288 41.928 19.288C41.48 19.288 40.96 19.216 40.368 19.072C39.792 18.928 39.32 18.736 38.952 18.496L36.744 19.264V1.768L34.632 1.672L34.608 1.12L39.096 0.615999ZM58.7415 19.288C56.1815 19.288 54.9015 18.056 54.9015 15.592C54.9015 13.784 54.9575 11.272 55.0695 8.056L53.1495 7.96V7.408L57.4215 7.144C57.3095 11.368 57.2535 14.24 57.2535 15.76C57.2535 16.672 57.4215 17.352 57.7575 17.8C58.0935 18.248 58.6535 18.472 59.4375 18.472C60.2375 18.472 60.9895 18.032 61.6935 17.152C62.3975 16.256 62.7495 15.472 62.7495 14.8V8.056L60.7575 7.96V7.408L65.1015 7.144V18.256L67.1415 18.352L67.1655 18.904L62.8455 19.192L63.0135 16.6H62.7255C61.8935 18.392 60.5655 19.288 58.7415 19.288ZM76.0791 3.376C76.0791 3.76 75.9431 4.096 75.6711 4.384C75.3991 4.656 75.0551 4.792 74.6391 4.792C74.2391 4.792 73.9031 4.656 73.6311 4.384C73.3591 4.112 73.2231 3.776 73.2231 3.376C73.2231 2.96 73.3591 2.616 73.6311 2.344C73.9031 2.056 74.2391 1.912 74.6391 1.912C75.0391 1.912 75.3751 2.056 75.6471 2.344C75.9351 2.632 76.0791 2.976 76.0791 3.376ZM71.9991 19V18.424L73.5831 18.304V8.104L71.4711 8.032V7.48L75.9351 7.168V18.304L77.5191 18.424V19H71.9991ZM87.8617 19H82.3417V18.424L83.9257 18.304V1.768L81.7897 1.672V1.12L86.2777 0.615999V18.304L87.8617 18.424V19ZM102.314 15.328V8.728C101.546 8.136 100.594 7.84 99.4581 7.84C98.0341 7.84 97.0581 8.424 96.5301 9.592C96.0981 10.584 95.8821 11.936 95.8821 13.648C95.8821 16.96 96.7781 18.616 98.5701 18.616C99.5781 18.616 100.45 18.232 101.186 17.464C101.938 16.696 102.314 15.984 102.314 15.328ZM98.1141 19.36C96.7381 19.36 95.5781 18.872 94.6341 17.896C93.6901 16.904 93.2181 15.432 93.2181 13.48C93.2181 11.512 93.7861 9.96 94.9221 8.824C96.0741 7.688 97.6021 7.12 99.5061 7.12C100.498 7.12 101.434 7.352 102.314 7.816V1.768L100.202 1.672L100.178 1.12L104.618 0.615999V18.448L106.658 18.544L106.682 19.096L102.434 19.384L102.482 17.08H102.338C101.954 17.8 101.37 18.36 100.586 18.76C99.8021 19.16 98.9781 19.36 98.1141 19.36Z" fill="#FCFFDF"/>
</svg>
